#!OML:ASF F:\Work\Patient Classification 1\justin\Session 1\justin.ASF
:FULLY-SPECIFIED
:DEGREES
7290
root 1.0592 16.7479 5.71121 5.64667 -24.4101 -11.5608
lowerback 15.8699 3.34707 9.21966
upperback 2.32525 6.18429 3.84749
thorax -5.84032 2.83269 -2.3111
lowerneck -21.2577 -0.423245 -14.4276
upperneck 11.6741 2.2071 8.46305
head 6.759 1.19474 5.39071
rclavicle 7.16619e-014 6.0033e-014
rhumerus -24.2095 23.8376 -88.8713
rradius 130.8
rwrist -11.7808
rhand -16.9346 34.0035
rfingers 7.12502
rthumb 9.29849 4.22858
lclavicle 7.16619e-014 6.0033e-014
lhumerus -35.8369 -1.12258 92.744
lradius 141.315
lwrist 13.8165
lhand -3.36864 7.16576
lfingers 7.12502
lthumb 22.3601 35.8918
rfemur 7.45589 -10.1674 25.3233
rtibia 30.2095
rfoot -28.2502 -15.6176
rtoes -37.5615
lfemur -42.4826 3.80447 5.63297
ltibia 50.2574
lfoot -0.578185 -11.0239
ltoes -27.0073
7291
root 1.04744 16.7594 5.64028 5.2779 -23.8223 -11.0843
lowerback 15.7764 3.35697 8.93932
upperback 2.50199 6.11595 3.73701
thorax -5.62149 2.82041 -2.24854
lowerneck -21.5504 -0.583475 -14.5853
upperneck 11.5734 2.04964 8.66903
head 6.78897 1.13861 5.47336
rclavicle -4.84041e-014 9.54166e-015
rhumerus -23.786 23.647 -88.7792
rradius 130.754
rwrist -11.7202
rhand -17.2297 33.4746
rfingers 7.12502
rthumb 9.01366 3.68716
lclavicle -4.84041e-014 9.54166e-015
lhumerus -35.7494 -1.50852 92.9066
lradius 141.249
lwrist 13.6181
lhand -3.72114 7.61472
lfingers 7.12502
lthumb 22.0217 36.381
rfemur 7.14688 -10.5284 25.1484
rtibia 30.7722
rfoot -28.4494 -15.901
rtoes -37.2914
lfemur -42.5524 3.77634 4.73322
ltibia 51.8808
lfoot -1.82629 -11.122
ltoes -28.0427
7292
root 1.02946 16.7652 5.54631 5.15244 -23.199 -11.0116
lowerback 16.0763 3.35686 8.7504
upperback 2.38466 6.13675 3.7888
thorax -5.93684 2.81716 -2.12305
lowerneck -21.3704 -0.643819 -14.6791
upperneck 11.3932 1.95879 8.75452
head 6.71055 1.10114 5.49947
rclavicle 4.23411e-014 -7.15625e-015
rhumerus -23.8846 23.4263 -88.8812
rradius 130.756
rwrist -11.5813
rhand -17.6447 33.7249
rfingers 7.12502
rthumb 8.61327 3.92061
lclavicle 4.23411e-014 -7.15625e-015
lhumerus -36.0094 -1.80174 93.0282
lradius 141.102
lwrist 13.4434
lhand -3.70918 7.8279
lfingers 7.12502
lthumb 22.0332 36.5928
rfemur 6.69444 -10.2822 25.7776
rtibia 31.1311
rfoot -28.5402 -16.5795
rtoes -36.3682
lfemur -42.7785 3.87598 4.33744
ltibia 53.3341
lfoot -3.34586 -11.7832
ltoes -32.6802
7293
root 1.00825 16.7763 5.47355 4.95021 -22.6554 -10.6947
lowerback 16.087 3.40662 8.37197
upperback 2.329 6.14623 3.77005
thorax -6.04008 2.82547 -1.94212
lowerneck -21.1326 -0.776816 -14.667
upperneck 11.2113 1.755 8.68622
head 6.63932 0.998471 5.44312
rclavicle -9.50191e-014 -7.67309e-014
rhumerus -24.2166 23.0251 -88.9988
rradius 130.794
rwrist -11.6841
rhand -17.5618 33.9647
rfingers 7.12502
rthumb 8.69321 4.16373
lclavicle -9.50191e-014 -7.67309e-014
lhumerus -36.2598 -2.02936 93.1902
lradius 140.809
lwrist 13.5169
lhand -3.82416 7.33455
lfingers 7.12502
lthumb 21.9228 36.1124
rfemur 6.46886 -10.0127 26.0066
rtibia 31.3394
rfoot -29.0486 -16.5661
rtoes -34.1828
lfemur -42.8921 3.95016 3.68036
ltibia 54.6319
lfoot -3.51341 -11.8767
ltoes -34.1161
7294
root 0.98752 16.7934 5.40771 4.58801 -22.1916 -9.84552
lowerback 15.9363 3.50251 7.51237
upperback 2.30419 6.10649 3.61115
thorax -6.0597 2.82588 -1.62379
lowerneck -20.8537 -0.911046 -14.7151
upperneck 10.998 1.54747 8.70543
head 6.55031 0.89955 5.425
rclavicle -2.61402e-014 -4.13472e-014
rhumerus -24.6063 22.8135 -89.2211
rradius 131.003
rwrist -12.1768
rhand -16.4192 33.3688
rfingers 7.12502
rthumb 9.79571 3.61663
lclavicle -2.61402e-014 -4.13472e-014
lhumerus -36.6211 -2.27613 93.3714
lradius 140.59
lwrist 13.6156
lhand -4.07573 6.97476
lfingers 7.12502
lthumb 21.6812 35.7807
rfemur 6.31894 -9.75195 25.6165
rtibia 31.4308
rfoot -29.6162 -16.3652
rtoes -31.7772
lfemur -42.9183 4.00815 2.46199
ltibia 55.6758
lfoot -3.77056 -12.21
ltoes -34.6658
7295
root 0.970792 16.8218 5.3817 4.56434 -21.6898 -9.5776
lowerback 15.3494 3.51947 7.38219
upperback 2.29197 6.04784 3.55523
thorax -5.76256 2.81497 -1.55725
lowerneck -20.909 -1.03996 -14.8066
upperneck 11.1322 1.37982 8.86375
head 6.62192 0.82613 5.48126
rclavicle 2.40529e-014 4.85035e-014
rhumerus -25.1635 23.5609 -89.8184
rradius 131.291
rwrist -10.985
rhand -18.0755 32.2546
rfingers 7.12502
rthumb 8.19748 2.43363
lclavicle 2.40529e-014 4.85035e-014
lhumerus -36.9952 -2.55811 93.4441
lradius 140.368
lwrist 13.8015
lhand -3.92286 6.94032
lfingers 7.12502
lthumb 21.828 35.7293
rfemur 6.2381 -10.1627 25.4715
rtibia 31.3212
rfoot -29.5667 -16.4739
rtoes -31.9085
lfemur -42.8272 4.0217 1.77111
ltibia 56.5772
lfoot -4.57045 -12.7548
ltoes -34.3986
7296
root 0.949576 16.8503 5.34111 4.56503 -21.2604 -9.42357
lowerback 15.1015 3.60196 7.19803
upperback 2.22254 6.11042 3.55337
thorax -5.71574 2.85194 -1.45427
lowerneck -21.4023 -1.31838 -14.7952
upperneck 11.6727 1.07075 8.81198
head 6.91774 0.665542 5.45179
rclavicle -8.06072e-014 1.78906e-014
rhumerus -25.6653 24.0255 -90.2941
rradius 131.68
rwrist -10.7344
rhand -20.8558 32.9677
rfingers 7.12502
rthumb 5.51357 3.05941
lclavicle -8.06072e-014 1.78906e-014
lhumerus -37.1756 -2.96523 93.5281
lradius 140.04
lwrist 14.0899
lhand -3.66789 6.95194
lfingers 7.12502
lthumb 22.0729 35.7122
rfemur 6.11937 -10.2842 25.6297
rtibia 31.1092
rfoot -29.3289 -16.8769
rtoes -31.9901
lfemur -42.7037 4.13477 1.30139
ltibia 57.2416
lfoot -4.45231 -13.2499
ltoes -32.4751
7297
root 0.927172 16.8674 5.28931 4.63575 -20.8179 -9.48184
lowerback 14.7689 3.58914 7.17796
upperback 2.52703 6.02615 3.46895
thorax -5.20533 2.83672 -1.47856
lowerneck -22.8766 -1.64245 -14.3294
upperneck 12.1803 0.734828 8.61544
head 7.36918 0.51738 5.30782
rclavicle 6.84813e-014 -2.38542e-015
rhumerus -24.865 22.905 -90.0705
rradius 131.263
rwrist -11.0244
rhand -15.3327 31.2184
rfingers 7.12502
rthumb 10.8439 1.51838
lclavicle 6.84813e-014 -2.38542e-015
lhumerus -36.4977 -3.32742 93.2005
lradius 139.707
lwrist 14.2297
lhand -3.68339 6.97998
lfingers 7.12502
lthumb 22.058 35.742
rfemur 6.03928 -10.009 26.1981
rtibia 30.7706
rfoot -29.2973 -17.186
rtoes -30.6086
lfemur -42.6328 4.48447 1.09657
ltibia 57.7422
lfoot -3.93614 -13.8613
ltoes -30.407
7298
root 0.908136 16.8864 5.24445 4.76991 -20.2977 -9.63684
lowerback 14.686 3.58868 7.27037
upperback 2.28881 6.05631 3.50405
thorax -5.40713 2.83917 -1.50153
lowerneck -22.3958 -1.77374 -14.5894
upperneck 12.0298 0.507837 8.97237
head 7.2679 0.427468 5.4362
rclavicle 2.28602e-014 2.62396e-014
rhumerus -25.3871 21.908 -90.2438
rradius 131.357
rwrist -12.8206
rhand -17.5391 44.0125
rfingers 7.12502
rthumb 8.71516 14.2124
lclavicle 2.28602e-014 2.62396e-014
lhumerus -37.0499 -3.76315 93.2054
lradius 139.605
lwrist 14.1054
lhand -3.79921 7.23361
lfingers 7.12502
lthumb 21.9468 36.0087
rfemur 5.92549 -9.95179 26.8067
rtibia 30.412
rfoot -29.0223 -17.7819
rtoes -30.3852
lfemur -42.4685 4.72064 0.957348
ltibia 58.065
lfoot -4.67205 -14.5612
ltoes -31.3785
7299
root 0.888717 16.9079 5.19685 4.97404 -19.8139 -9.82922
lowerback 14.9407 3.62984 7.26403
upperback 1.72323 6.19422 3.60757
thorax -6.15765 2.8685 -1.45753
lowerneck -21.4712 -1.8062 -15.0511
upperneck 11.9153 0.375432 9.49743
head 7.09458 0.378963 5.66178
rclavicle -2.95195e-014 -2.54444e-014
rhumerus -26.6472 21.8004 -90.9291
rradius 131.189
rwrist -11.8174
rhand -19.1461 43.2568
rfingers 7.12502
rthumb 7.16409 13.3981
lclavicle -2.95195e-014 -2.54444e-014
lhumerus -38.1438 -4.19063 93.3696
lradius 139.575
lwrist 13.9667
lhand -4.03063 7.49483
lfingers 7.12502
lthumb 21.7245 36.2958
rfemur 5.68996 -9.74874 27.5301
rtibia 30.0854
rfoot -28.737 -18.5172
rtoes -30.3384
lfemur -42.3237 4.90158 0.915205
ltibia 58.1477
lfoot -5.40047 -15.2941
ltoes -32.8821
7300
root 0.86888 16.941 5.18961 4.9573 -19.398 -9.44548
lowerback 14.7919 3.69373 6.88375
upperback 1.32999 6.23501 3.52387
thorax -6.52648 2.87908 -1.35081
lowerneck -21.2282 -1.9071 -15.3038
upperneck 12.2341 0.216554 9.7806
head 7.17978 0.304396 5.7892
rclavicle -3.96575e-014 -3.33958e-014
rhumerus -27.793 21.6249 -91.5613
rradius 130.93
rwrist -10.9709
rhand -14.0748 33.2548
rfingers 7.12502
rthumb 12.057 3.62216
lclavicle -3.96575e-014 -3.33958e-014
lhumerus -39.0674 -4.56906 93.4567
lradius 139.515
lwrist 13.8461
lhand -4.16774 7.33946
lfingers 7.12502
lthumb 21.5929 36.1556
rfemur 5.731 -9.80518 27.3649
rtibia 29.7325
rfoot -28.8302 -18.4842
rtoes -29.4424
lfemur -41.876 4.86009 0.269252
ltibia 57.9938
lfoot -5.83505 -15.9952
ltoes -33.9416
7301
root 0.851454 16.976 5.17991 4.9722 -18.8873 -9.00398
lowerback 14.5371 3.71325 6.54782
upperback 1.04836 6.19788 3.35793
thorax -6.70648 2.86009 -1.32742
lowerneck -21.3242 -2.09622 -15.2217
upperneck 12.5901 -0.0420039 9.66675
head 7.34769 0.165949 5.71781
rclavicle -9.93923e-017 -2.38542e-015
rhumerus -28.2326 20.5425 -91.643
rradius 131.114
rwrist -14.0152
rhand -10.3693 33.6478
rfingers 7.12502
rthumb 15.628 4.25904
lclavicle -9.93923e-017 -2.38542e-015
lhumerus -39.7231 -4.9933 93.4256
lradius 139.415
lwrist 13.5612
lhand -4.15436 7.14257
lfingers 7.12502
lthumb 21.6057 35.9572
rfemur 5.60515 -9.9491 27.1837
rtibia 29.4516
rfoot -28.6927 -18.7358
rtoes -29.2375
lfemur -41.4506 4.62896 -0.378568
ltibia 57.5934
lfoot -7.84906 -17.0034
ltoes -37.0382
